PathFileType	4	(X/Y/Z)	OpenSim_Sub06_EMGStiffKnee_Magnet.trc
DataRate	CameraRate	NumFrames	NumMarkers	Units	OrigDataRate	OrigDataStartFrame	OrigNumFrames
100	100	23	8	m	100	1	5432
Frame#	Time	torso_imu_offset_imu	pelvis_imu_offset_imu	tibia_r_imu_offset_imu	femur_r_imu_offset_imu	tibia_l_imu_offset_imu	femur_l_imu_offset_imu	toes_r_imu_offset_imu	toes_l_imu_offset_imu
				X1	Y1	Z1	X2	Y2	Z2	X3	Y3	Z3	X4	Y4	Z4	X5	Y5	Z5	X6	Y6	Z6	X7	Y7	Z7	X8		Y8	Z8	

1	0	-0.89575200	-0.22802700	0.08276400	-0.45166000	0.29028300	-0.74365200	-0.65258800	-0.36938500	-0.25781200	-0.80102500	-0.23535200	0.02661100	-0.62622100	0.50683600	0.12915000	-0.57055700	0.45239300	0.37377900	-0.53857400	-0.10815400	-0.55566400	-0.71142600	-0.09887700	-0.40405300
2	0.01000000	-0.90014600	-0.22583000	0.08715800	-0.45361300	0.29028300	-0.74121100	-0.65722700	-0.36108400	-0.25585900	-0.79687500	-0.23730500	0.03588900	-0.61962900	0.51562500	0.12207000	-0.56616200	0.45678700	0.37817400	-0.53271500	-0.09790000	-0.56201200	-0.71386700	-0.09448200	-0.39965800
3	0.02000000	-0.89575200	-0.22802700	0.08496100	-0.45825200	0.30078100	-0.74633800	-0.65942400	-0.35253900	-0.25830100	-0.79907200	-0.23339800	0.04028300	-0.61328100	0.52221700	0.11938500	-0.56640600	0.46118200	0.36914100	-0.52441400	-0.09570300	-0.57251000	-0.72070300	-0.09228500	-0.40185500
4	0.03000000	-0.90014600	-0.22583000	0.08056600	-0.45385700	0.29663100	-0.74853500	-0.66821300	-0.34008800	-0.26098600	-0.79516600	-0.22900400	0.03564500	-0.61572300	0.53344700	0.10766600	-0.55981400	0.46362300	0.36914100	-0.52465800	-0.08740200	-0.56640600	-0.71606400	-0.09228500	-0.39526400
5	0.04000000	-0.89990200	-0.23022500	0.08520500	-0.45581100	0.29028300	-0.74365200	-0.66406200	-0.34008800	-0.26098600	-0.79931600	-0.22509800	0.04003900	-0.60034200	0.54003900	0.09814500	-0.56225600	0.46557600	0.37573200	-0.52441400	-0.08960000	-0.57055700	-0.71850600	-0.08593800	-0.39062500
6	0.05000000	-0.89990200	-0.23022500	0.08056600	-0.45556600	0.28393600	-0.74804700	-0.66210900	-0.33813500	-0.26098600	-0.80151400	-0.22094700	0.04199200	-0.59375000	0.54663100	0.09790000	-0.55810500	0.47656200	0.37793000	-0.53295900	-0.08349600	-0.56225600	-0.72119100	-0.07934600	-0.38842800
7	0.06000000	-0.90429700	-0.23022500	0.08276400	-0.45776400	0.27978500	-0.75024400	-0.66406200	-0.34228500	-0.25634800	-0.79760700	-0.21875000	0.05127000	-0.58544900	0.56201200	0.09252900	-0.56030300	0.47876000	0.36669900	-0.53100600	-0.07934600	-0.56445300	-0.72314500	-0.08154300	-0.39306600
8	0.07000000	-0.90210000	-0.22583000	0.07397500	-0.45336900	0.27783200	-0.75244100	-0.66796900	-0.35058600	-0.25390600	-0.79565400	-0.21264600	0.05566400	-0.58105500	0.56640600	0.08764600	-0.55615200	0.48315400	0.36889600	-0.54101600	-0.09179700	-0.55590800	-0.73242200	-0.07714800	-0.38842800
9	0.08000000	-0.90429700	-0.22802700	0.07397500	-0.45312500	0.27343800	-0.75000000	-0.65527300	-0.35693400	-0.25366200	-0.80200200	-0.21044900	0.05786100	-0.56811500	0.58178700	0.08007800	-0.55639600	0.48754900	0.36645500	-0.54101600	-0.09399400	-0.55371100	-0.73022500	-0.07495100	-0.38623000
10	0.09000000	-0.90649400	-0.22802700	0.07177700	-0.45703100	0.26293900	-0.75415000	-0.65478500	-0.36718800	-0.24218800	-0.80175800	-0.21484400	0.06250000	-0.56396500	0.59301800	0.07739300	-0.55419900	0.48974600	0.36865200	-0.55468800	-0.13720700	-0.52417000	-0.73022500	-0.07275400	-0.36840800
11	0.10000000	-0.90893600	-0.21752900	0.06689500	-0.46093800	0.25048800	-0.75366200	-0.65014600	-0.38183600	-0.24169900	-0.80200200	-0.20849600	0.06689500	-0.54858400	0.60400400	0.07202100	-0.55419900	0.48974600	0.36206100	-0.56884800	-0.14965800	-0.50927700	-0.73291000	-0.05957000	-0.37280300
12	0.11000000	-0.90454100	-0.21752900	0.05810500	-0.46093800	0.24609400	-0.75366200	-0.64550800	-0.39453100	-0.22558600	-0.79980500	-0.21264600	0.07617200	-0.53784200	0.61499000	0.06689500	-0.55664100	0.49389600	0.35986300	-0.58129900	-0.15600600	-0.48852500	-0.73535200	-0.05737300	-0.37060500
13	0.12000000	-0.90869100	-0.22387700	0.05615200	-0.46264600	0.23779300	-0.76245100	-0.64526400	-0.40283200	-0.22094700	-0.79370100	-0.20849600	0.08520500	-0.52465800	0.62377900	0.06396500	-0.55664100	0.49389600	0.35302700	-0.56811500	-0.17822300	-0.50463900	-0.74218800	-0.05322300	-0.36401400
14	0.13000000	-0.90869100	-0.21972700	0.05590800	-0.46484400	0.23559600	-0.76025400	-0.64746100	-0.40283200	-0.22314500	-0.78906200	-0.22094700	0.09252900	-0.51147500	0.63696300	0.07226600	-0.56103500	0.49389600	0.34863300	-0.56420900	-0.16992200	-0.50488300	-0.74462900	-0.04663100	-0.35717800
15	0.14000000	-0.91308600	-0.21972700	0.05590800	-0.47338900	0.23144500	-0.74829100	-0.63452100	-0.41333000	-0.23388700	-0.77612300	-0.23535200	0.09765600	-0.49853500	0.64794900	0.06689500	-0.56323200	0.49389600	0.34619100	-0.56591800	-0.18017600	-0.50878900	-0.74951200	-0.03784200	-0.34155300
16	0.15000000	-0.90869100	-0.22168000	0.04736300	-0.47558600	0.23120100	-0.74829100	-0.62133800	-0.42773400	-0.22680700	-0.78027300	-0.23754900	0.10473600	-0.48754900	0.65454100	0.06201200	-0.56079100	0.48950200	0.34863300	-0.56372100	-0.18432600	-0.50244100	-0.76538100	-0.03369100	-0.32128900
17	0.16000000	-0.91503900	-0.22192400	0.04711900	-0.47583000	0.24194300	-0.74877900	-0.61230500	-0.44873000	-0.22607400	-0.78027300	-0.23754900	0.09765600	-0.47216800	0.67016600	0.06567400	-0.56103500	0.49389600	0.35302700	-0.56591800	-0.18432600	-0.50463900	-0.76123000	-0.02075200	-0.29882800
18	0.17000000	-0.91528300	-0.21752900	0.05151400	-0.47387700	0.25244100	-0.74682600	-0.59912100	-0.46948200	-0.22070300	-0.78466800	-0.23120100	0.09985400	-0.45678700	0.67675800	0.06518600	-0.56713900	0.48510700	0.35546900	-0.57226600	-0.18237300	-0.50463900	-0.77734400	-0.01220700	-0.27636700
19	0.18000000	-0.91113300	-0.21337900	0.05127000	-0.47827100	0.25439500	-0.74926800	-0.59252900	-0.47998000	-0.21582000	-0.78271500	-0.23120100	0.09985400	-0.43920900	0.68994100	0.05737300	-0.57104500	0.46997100	0.36450200	-0.57006800	-0.18237300	-0.50048800	-0.78442400	0.00097700	-0.24511700
20	0.19000000	-0.91528300	-0.21557600	0.05810500	-0.48681600	0.25219700	-0.74926800	-0.58789100	-0.49267600	-0.19311500	-0.78076200	-0.22094700	0.10864300	-0.42407200	0.70312500	0.06323200	-0.57959000	0.46118200	0.36914100	-0.57031200	-0.17431600	-0.50073200	-0.78955100	0.01391600	-0.21142600
21	0.20000000	-0.91552700	-0.21118200	0.05566400	-0.47998000	0.23754900	-0.74853500	-0.57690400	-0.50732400	-0.17919900	-0.78295900	-0.22094700	0.11328100	-0.40405300	0.70971700	0.06958000	-0.58789100	0.44799800	0.36035200	-0.57666000	-0.17431600	-0.49023400	-0.79907200	0.02905300	-0.18237300
22	0.21000000	-0.91772500	-0.20483400	0.05542000	-0.48193400	0.23144500	-0.75781200	-0.57861300	-0.51757800	-0.16772500	-0.77832000	-0.23535200	0.11840800	-0.38671900	0.72509800	0.07299800	-0.60302700	0.43457000	0.35595700	-0.57226600	-0.18042000	-0.49023400	-0.80615200	0.03979500	-0.15087900
23	0.22000000	-0.92211900	-0.20507800	0.06420900	-0.48168900	0.22290000	-0.76196300	-0.57006800	-0.52392600	-0.15844700	-0.76538100	-0.24780300	0.11425800	-0.36230500	0.73388700	0.07006800	-0.61352500	0.42358400	0.35156200	-0.57446300	-0.17431600	-0.49658200	-0.80444300	0.05493200	-0.09912100
